<svg xmlns="http://www.w3.org/2000/svg" viewBox="0 0 512 512" style="height: 512px; width: 512px;"><defs><radialGradient id="bg-gradient"><stop offset="0%" stop-color="#ff0000" stop-opacity="1"></stop><stop offset="100%" stop-color="#000" stop-opacity="1"></stop></radialGradient></defs><polygon points="477.7,384,256,512,34.3,384,34.3,128,256,0,477.7,128" fill="url(#bg-gradient)"></polygon><path fill="#00ffdb" d="M275.5 96l-96 96h-96v128h96l96 96V96zm51.46 27.668l-4.66 17.387c52.066 13.95 88.2 61.04 88.2 114.945 0 53.904-36.134 100.994-88.2 114.945l4.66 17.387C386.81 372.295 428.5 317.962 428.5 256c0-61.963-41.69-116.295-101.54-132.332zm-12.425 46.365l-4.658 17.387C340.96 195.748 362.5 223.822 362.5 256s-21.54 60.252-52.623 68.58l4.658 17.387C353.402 331.552 380.5 296.237 380.5 256c0-40.238-27.098-75.552-65.965-85.967zm-12.424 46.363l-4.657 17.387C307.55 236.49 314.5 245.547 314.5 256s-6.95 19.51-17.047 22.217l4.658 17.387c17.884-4.792 30.39-21.09 30.39-39.604 0-18.513-12.506-34.812-30.39-39.604z" transform="translate(0, 0) scale(1, 1) rotate(-360, 256, 256)"></path><g font-family="Arial, Helvetica, sans-serif" font-size="50" font-style="normal" font-weight="bold" text-anchor="middle" class="" transform="translate(256,300)" style="touch-action: none;"><text stroke="#000000" stroke-width="12.5" opacity="0.72">SoundReloader</text><text fill="#ff0004" opacity="1">SoundReloader</text></g></svg>